<?xml version="1.0" encoding="UTF-8"?>
<svg version="1.1" xmlns="http://www.w3.org/2000/svg" width="500" height="500">
<path d="M0 0 C9.9 0 19.8 0 30 0 C30 14.52 30 29.04 30 44 C41.88 44 53.76 44 66 44 C66 29.48 66 14.96 66 0 C75.9 0 85.8 0 96 0 C96 36.63 96 73.26 96 111 C86.1 111 76.2 111 66 111 C66 95.16 66 79.32 66 63 C54.12 63 42.24 63 30 63 C30 78.84 30 94.68 30 111 C20.1 111 10.2 111 0 111 C0 74.37 0 37.74 0 0 Z " fill="#000000" transform="translate(294,186)"/>
<path d="M0 0 C9.9 0 19.8 0 30 0 C30 14.52 30 29.04 30 44 C41.88 44 53.76 44 66 44 C66 29.48 66 14.96 66 0 C75.9 0 85.8 0 96 0 C96 36.63 96 73.26 96 111 C86.1 111 76.2 111 66 111 C66 95.16 66 79.32 66 63 C54.12 63 42.24 63 30 63 C30 78.84 30 94.68 30 111 C20.1 111 10.2 111 0 111 C0 74.37 0 37.74 0 0 Z " fill="#000000" transform="translate(183,186)"/>
<path d="M0 0 C29.21701104 -2.50417764 29.21701104 -2.50417764 36.41455078 1.26416016 C39.9397547 4.67891382 41.48574748 8.96434628 43.05419922 13.53417969 C44.81513792 18.12516598 47.48264195 22.2296241 50 26.4375 C50.47107178 27.27192627 50.94214355 28.10635254 51.42749023 28.96606445 C51.86391846 29.73909912 52.30034668 30.51213379 52.75 31.30859375 C53.33007812 32.34197876 53.33007812 32.34197876 53.921875 33.39624023 C54.91984418 35.16525073 54.91984418 35.16525073 57 36 C57.27618164 35.27256592 57.55236328 34.54513184 57.83691406 33.7956543 C58.93806135 31.148879 60.1820465 28.7526675 61.609375 26.26953125 C62.37121094 24.94018555 62.37121094 24.94018555 63.1484375 23.58398438 C63.67695313 22.66939453 64.20546875 21.75480469 64.75 20.8125 C65.26304687 19.91724609 65.77609375 19.02199219 66.3046875 18.09960938 C67.3435688 16.29200812 68.40221674 14.49562851 69.47998047 12.7109375 C71.0647746 10.03348903 71.0647746 10.03348903 72.11767578 7.1171875 C73.44701222 4.03308321 74.43981478 2.19480892 77 0 C82.83377674 -1.2485933 88.45010259 -0.94497102 94.375 -0.625 C95.98553958 -0.5748022 97.59622873 -0.52918117 99.20703125 -0.48828125 C103.14172695 -0.37842265 107.06922073 -0.20614866 111 0 C109.74659546 3.32530699 108.33271224 6.29492536 106.453125 9.30859375 C105.94499268 10.12690674 105.43686035 10.94521973 104.91333008 11.78833008 C104.36443115 12.66255615 103.81553223 13.53678223 103.25 14.4375 C102.67725342 15.35619873 102.10450684 16.27489746 101.5144043 17.22143555 C96.78688524 24.78764669 92.00627368 32.32041728 87.19824219 39.83569336 C86.09240166 41.56511435 85.00158051 43.30420626 83.92382812 45.05126953 C82.47861321 47.26640985 81.01186831 49.29163329 79.38867188 51.36669922 C70.57349546 63.15228237 70.62245346 74.17669208 70.875 88.5 C70.87694648 90.69140693 70.87437348 92.88282273 70.8671875 95.07421875 C70.85112672 100.38632058 70.92737368 105.68546256 71 111 C60.77 111 50.54 111 40 111 C40.10183594 107.885625 40.20367187 104.77125 40.30859375 101.5625 C41.10614515 69.72965883 41.10614515 69.72965883 26.07519531 42.56982422 C22.5146543 38.16061779 19.65377796 33.31932585 16.6875 28.5 C15.54617961 26.70108385 14.40173437 24.90414578 13.25390625 23.109375 C12.71008301 22.25537109 12.16625977 21.40136719 11.60595703 20.52148438 C10.54502907 18.85574038 9.48351649 17.19036857 8.42138672 15.52539062 C6.98463611 13.26981686 5.5539024 11.01055105 4.125 8.75 C3.70178467 8.08806641 3.27856934 7.42613281 2.8425293 6.74414062 C0 2.22900152 0 2.22900152 0 0 Z " fill="#000000" transform="translate(69,186)"/>
<path d="M0 0 C4.07546405 2.95670921 6.58778155 5.51334466 8.1875 10.3125 C8.88198865 17.46231754 8.64944101 22.55894448 4.1875 28.3125 C-0.63601689 32.05318657 -4.45920056 33.68453296 -10.62109375 33.59375 C-15.8015618 32.9288771 -19.70312053 30.47877073 -23.25 26.75 C-26.56268414 21.58221274 -26.2812982 16.26197532 -25.8125 10.3125 C-23.86435975 4.67314664 -20.69716966 1.91509426 -15.5625 -0.9375 C-10.18542909 -2.40397388 -5.02167961 -2.66742981 0 0 Z M-16.8125 5.3125 C-19.86305526 8.68416634 -21.08653455 11.33838404 -21.3125 15.8125 C-21.07831613 20.29976507 -19.92311244 22.96260968 -16.8125 26.3125 C-12.90495102 28.71714553 -10.10010838 29.67918766 -5.625 28.8125 C-1.77490407 27.61867181 0.03518536 25.75620343 2.1875 22.3125 C3.92586852 18.83576295 3.64186319 15.11379202 3.1875 11.3125 C0.81509946 6.38520658 -1.7093754 4.22617172 -6.8125 2.3125 C-11.28288145 2.3125 -13.06029819 2.96737387 -16.8125 5.3125 Z " fill="#010101" transform="translate(421.8125,146.6875)"/>
<path d="M0 0 C1.625 1.3125 1.625 1.3125 2.4375 3.625 C2.625 6.3125 2.625 6.3125 2.125 8.6875 C1.47936952 12.07706 2.02952608 14.9381478 2.625 18.3125 C0.25 18.125 0.25 18.125 -2.375 17.3125 C-3.5 14.8125 -3.5 14.8125 -4.375 12.3125 C-5.365 11.9825 -6.355 11.6525 -7.375 11.3125 C-7.375 13.6225 -7.375 15.9325 -7.375 18.3125 C-9.025 18.3125 -10.675 18.3125 -12.375 18.3125 C-12.375 12.3725 -12.375 6.4325 -12.375 0.3125 C-8.16841995 -1.08969335 -4.2837274 -1.24002635 0 0 Z M-7.375 3.3125 C-7.375 4.6325 -7.375 5.9525 -7.375 7.3125 C-5.725 6.9825 -4.075 6.6525 -2.375 6.3125 C-2.705 5.3225 -3.035 4.3325 -3.375 3.3125 C-4.695 3.3125 -6.015 3.3125 -7.375 3.3125 Z " fill="#010101" transform="translate(418.375,153.6875)"/>
</svg>
